<svg id="Layer_1" data-name="Layer 1" xmlns="http://www.w3.org/2000/svg" viewBox="0 0 231.96 54.09"><defs><style>.cls-1{fill:#151532;}.cls-2{fill:#55c4c3;}</style></defs><title>logo-dark</title><path class="cls-1" d="M46,43.53a25.53,25.53,0,1,1,0-30.21L37.2,19c-3.27-3-6.92-4.91-11.75-4.91a14.33,14.33,0,0,0,0,28.65c4.83,0,7.88-1.56,11.75-4.84Z"/><path class="cls-2" d="M88.27,33.63a20.86,20.86,0,0,1-1.63,8,20.46,20.46,0,0,1-4.39,6.48,19.33,19.33,0,0,1-6.48,4.39,19.66,19.66,0,0,1-8,1.63,20.83,20.83,0,0,1-8-1.56,21.53,21.53,0,0,1-6.55-4.39,21.18,21.18,0,0,1-4.39-6.47,20.83,20.83,0,0,1-1.56-8,19.4,19.4,0,0,1,1.56-8A20.6,20.6,0,0,1,53.3,19.2a20.37,20.37,0,0,1,6.47-4.39,20.92,20.92,0,0,1,8-1.64,19.5,19.5,0,0,1,8,1.64,20.21,20.21,0,0,1,6.55,4.31,21.84,21.84,0,0,1,4.39,6.55A22.32,22.32,0,0,1,88.27,33.63Zm-10.19,0A10.31,10.31,0,1,0,67.81,44,10.35,10.35,0,0,0,78.08,33.63Z"/><path class="cls-1" d="M116.58,13.69v9.75a12.17,12.17,0,0,0-2.38-.22c-5.5,0-10.27,4.24-10.27,11.68V52.61H92.47V14.36h11.46v4.47c.52-1.27,2.61-5.59,9.08-5.59A13.69,13.69,0,0,1,116.58,13.69Z"/><path class="cls-1" d="M137.07,23.07V35.42c0,7.51,3.05,7.44,7.22,7.51V53.28c-14.36,2.53-19.2-4.84-19.2-14.07V23.07h-5.65V14.29h5.65V0h12V14.29h10.42v8.78Z"/><path class="cls-1" d="M188.15,45.24c-4.24,4.91-9.38,8.63-16.74,8.63a20.35,20.35,0,0,1-20.32-18.23A20.75,20.75,0,0,1,171.48,13C184.2,13,192,25.45,190,37.43h-28.5a10.54,10.54,0,0,0,9.9,6.69,11.32,11.32,0,0,0,8.4-4ZM161.51,30.06h19c0-4-4.61-7.37-9-7.37C166.05,22.69,161.51,26.27,161.51,30.06Z"/><path class="cls-1" d="M232,46.36l-7.29,7.36-12.95-13-13.1,12.95-7.29-7.29,13-13.17L191.26,20.24l7.29-7.37,13.17,13,12.87-13L232,20.09,219,33.26Z"/></svg>