<?xml version="1.0" encoding="utf-8"?>
<!-- Generator: Adobe Illustrator 18.0.0, SVG Export Plug-In . SVG Version: 6.00 Build 0)  -->
<!DOCTYPE svg PUBLIC "-//W3C//DTD SVG 1.1//EN" "http://www.w3.org/Graphics/SVG/1.1/DTD/svg11.dtd">
<svg version="1.1" id="Layer_1" xmlns="http://www.w3.org/2000/svg" xmlns:xlink="http://www.w3.org/1999/xlink" x="0px" y="0px"
	 viewBox="0 0 130 36" enable-background="new 0 0 130 36" xml:space="preserve">
<g>
	<path fill="#151632" d="M49.9,24.3c-1.9,2.7-5.1,4.3-8.6,4.3c-5.9,0-10.7-4.8-10.7-10.7c0-5.9,4.8-10.7,10.7-10.7
		c3.5,0,6.7,1.7,8.6,4.4L46.2,14c-1.4-1.2-2.9-2.1-4.9-2.1c-3.3,0-6,2.7-6,6c0,3.3,2.7,6,6,6c2,0,3.3-0.7,4.9-2L49.9,24.3z"/>
	<path fill="#FFFFFF" d="M67.7,20.2c0,1.2-0.3,2.3-0.7,3.3c-0.4,1-1.1,1.9-1.8,2.7c-0.8,0.8-1.7,1.4-2.7,1.8
		c-1.1,0.5-2.2,0.7-3.3,0.7c-1.2,0-2.3-0.2-3.3-0.7c-1-0.4-1.9-1.1-2.7-1.8c-0.8-0.8-1.4-1.7-1.8-2.7c-0.4-1.1-0.7-2.2-0.7-3.3
		c0-1.2,0.2-2.3,0.7-3.3c0.4-1,1.1-2,1.8-2.7c0.8-0.8,1.7-1.4,2.7-1.8c1.1-0.4,2.2-0.7,3.3-0.7c1.2,0,2.3,0.2,3.3,0.7
		c1,0.4,1.9,1,2.8,1.8c0.8,0.8,1.4,1.7,1.8,2.8C67.4,17.9,67.6,19,67.7,20.2z M63.4,20.2c0-2.4-1.9-4.3-4.3-4.3
		c-2.4,0-4.3,1.9-4.3,4.3c0,2.4,1.9,4.3,4.3,4.3C61.4,24.5,63.4,22.5,63.4,20.2z"/>
	<path fill="#151632" d="M79.5,11.8v4.1c-0.3-0.1-0.7-0.1-1-0.1c-2.3,0-4.3,1.8-4.3,4.9c0,2.1,0,7.4,0,7.4h-4.8V12.1h4.8v1.9
		c0.2-0.5,1.1-2.3,3.8-2.3C78.5,11.6,79.1,11.7,79.5,11.8z"/>
	<path fill="#151632" d="M88.1,15.7c0,2.4,0,3.7,0,5.2c0,3.2,1.3,3.1,3,3.2v4.3c-6,1.1-8.1-2-8.1-5.9c0-1.8,0-3.8,0-6.8h-2.4V12h2.4
		V6h5v6h4.4v3.7H88.1z"/>
	<path fill="#151632" d="M109.6,25c-1.8,2.1-3.9,3.6-7,3.6c-4.4,0-8.1-3.3-8.5-7.7c-0.5-4.9,3.4-9.5,8.6-9.5c5.3,0,8.6,5.2,7.8,10.3
		h-12c0.7,1.7,2.3,2.8,4.2,2.8c1.3,0,2.5-0.6,3.5-1.7L109.6,25z M98.4,18.7h8c0-1.7-1.9-3.1-3.8-3.1C100.3,15.6,98.4,17.1,98.4,18.7
		z"/>
	<path fill="#151632" d="M128,25.5l-3.1,3.1l-5.4-5.5l-5.5,5.4l-3.1-3.1l5.5-5.5l-5.5-5.4l3.1-3.1l5.5,5.4l5.4-5.5l3.1,3.1l-5.4,5.5
		L128,25.5z"/>
	<g>
		<path fill="#FFFFFF" d="M27.2,18.8c0-2-1-2.2-2.8-2.4c-1.6-0.2-3.4-0.3-4.2-2.6c0-0.1,0-0.2,0-0.2c0-0.1,0.1-0.1,0.2-0.2
			c0.2-0.1,0.3,0,0.4,0.2c0.7,1.9,2.2,2,3.6,2.2c0.7,0.1,1.6,0.2,2.2,0.5c0.1,0,0.2,0,0.2,0c0.1,0,0.1-0.1,0.1-0.2c-0.3-4-2-6-3.4-7
			c-0.8-0.5-1.4-0.8-1.9-0.9c-0.1,0-0.2,0-0.2,0.1c-0.1,0.1-0.1,0.2,0,0.2c0.3,0.5,0.5,1.1,0.6,1.7c0.3,1.2,0.6,2.3,2,2.6
			c0.1,0,0.1,0.1,0.2,0.1c0,0.1,0.1,0.1,0,0.2c0,0.1-0.2,0.2-0.3,0.2c0,0,0,0-0.1,0c-1.7-0.3-2.1-1.7-2.4-3
			c-0.2-0.9-0.5-1.7-1.1-2.2C19.6,7.5,18.1,7,16.8,7c-0.2,0-0.4,0-0.6,0c-0.4,0.1-1,0.2-1.5,0.6c0,0-0.1,0.1-0.1,0.2
			c0,0.1,0,0.1,0.1,0.2c0.6,0.7,1.2,1.6,1.7,2.6c0.1,0.1,0,0.3-0.1,0.4c-0.1,0.1-0.3,0-0.4-0.1c-0.6-1.2-1.3-2.2-2-2.8c0,0,0,0,0,0
			c0,0,0,0,0,0c-1-0.9-1.9-1.1-2.4-1.1c-0.2,0-0.3,0-0.4,0c-0.8,0.2-1.3,0.7-1.5,1.1c0,0.1,0,0.1,0,0.2C9.7,8.6,9.9,8.9,10,9.2
			c0.4,1,0.7,1.9,2.4,2c0.1,0,0.2,0,0.2,0.1c0.1,0.1,0.1,0.1,0.1,0.2c0,0.2-0.1,0.3-0.3,0.3c0,0,0,0,0,0c-2.1-0.1-2.6-1.4-2.9-2.4
			C9.3,9,9.1,8.7,9,8.5c0,0,0,0,0,0c0,0,0,0,0,0c0,0,0,0,0,0C8.7,8.2,8.5,8.1,8.2,8.1c-0.7,0-1.3,0.2-1.6,0.7
			C6.4,8.9,6.3,9.1,6.2,9.4c0,0,0,0,0,0c0,0,0,0.1,0,0.1c0,0,0,0,0,0c-0.2,0.6-0.2,1.3,0,1.9c0.2,1.2,1,2.6,3,3c0.2,0,0.4,0,0.6,0
			c0.5,0,1-0.1,1.5-0.2c0.6-0.1,1.2-0.2,1.9-0.2c1,0,1.8,0.2,2.6,0.7c0.1,0,0.1,0,0.2,0c0.1,0,0.1-0.1,0.1-0.1
			c0.4-0.9,0.9-1.5,1.3-2c0.9-0.9,1.5-1.6,0.6-4c0-0.1,0-0.2,0-0.2c0-0.1,0.1-0.1,0.2-0.2c0.2-0.1,0.3,0,0.4,0.2
			c1,2.7,0.2,3.6-0.7,4.6c-0.5,0.5-1,1.1-1.3,2c0,0.1,0,0.2,0.1,0.2c2.1,1.5,3.2,2,4.3,2c0.1,0,0.3,0,0.4,0c0.2,0,0.3,0.1,0.3,0.3
			c0,0.1,0,0.2-0.1,0.2c0,0.1-0.1,0.1-0.2,0.1c-0.2,0-0.4,0-0.5,0c-1.3,0-2.6-0.6-5-2.4c-0.8-0.6-1.7-0.9-2.8-0.9
			c-0.6,0-1.2,0.1-1.8,0.2c-0.6,0.1-1.1,0.2-1.6,0.2c-0.3,0-0.5,0-0.7-0.1c-1.8-0.3-3.1-1.6-3.5-3.5c0-0.2-0.1-0.5-0.1-1
			c0-0.1-0.1-0.2-0.1-0.2c-0.1,0-0.2,0-0.2,0c-1.7,1.6-1.8,3.2-1.7,4c0.1,1.3,0.9,2.2,1.6,2.5C5.1,17,5.4,17,5.7,17
			c0.3,0,0.6,0,1-0.1c0.4-0.1,0.8-0.1,1.3-0.1c1.3,0,2.5,0.4,3.8,1.4c0.1,0.1,0.2,0.3,0.1,0.4c-0.1,0.1-0.3,0.2-0.4,0.1
			c-1.2-0.9-2.3-1.3-3.4-1.3c-0.4,0-0.9,0.1-1.2,0.1c-0.4,0-0.7,0.1-1,0.1c-0.4,0-0.7-0.1-1-0.2c-0.8-0.3-1.6-1.3-1.9-2.4
			c0-0.1-0.1-0.2-0.2-0.2c-0.1,0-0.2,0-0.2,0.1c-0.8,1.8-0.4,3.5,0.5,4.5c0.6,0.7,1.4,1.1,2.3,1.1c0.7,0,1.3-0.2,2-0.6
			c0.1,0,0.1-0.1,0.1-0.1c0.1-0.4,0.3-0.8,0.4-1.1c0.1-0.1,0.3-0.2,0.4-0.1c0.1,0,0.1,0.1,0.1,0.2c0,0.1,0,0.2,0,0.2
			c-0.6,1-0.7,2.6,0.1,3.8c0.6,0.9,1.7,1.4,3.2,1.4c0.1,0,0.3,0,0.4,0c0.1,0,0.2-0.1,0.2-0.1c0-0.1,0-0.2,0-0.2
			c-0.8-1,0.1-2.1,0.9-3.1c0.8-1,1.6-2.1,1.3-3.3c0-0.2,0-0.3,0.2-0.4c0.2,0,0.3,0.1,0.4,0.2c0.4,1.5-0.6,2.8-1.4,3.8
			c-0.9,1.2-1.4,1.9-0.8,2.5c0.3,0.3,0.5,0.4,0.8,0.4c0.4,0,0.9-0.3,1.9-0.8c0.8-0.5,1.9-1.2,3.4-1.6c0.1,0,0.1-0.1,0.2-0.2
			c0-0.1,0-0.2-0.1-0.2c-0.4-0.2-0.7-0.4-0.9-0.7c-0.4-0.5-0.5-1.1-0.3-1.7c0-0.2,0.2-0.3,0.4-0.2c0.2,0,0.3,0.2,0.2,0.4
			c-0.1,0.5-0.1,0.9,0.2,1.2c0.3,0.4,1.1,0.9,3.2,1.1c0.3,0,0.7,0,1,0c1,0,2.2-0.2,3-0.5c0.1,0,0.1-0.1,0.1-0.2c0-0.1,0-0.1,0-0.2
			c-0.2-0.2-0.5-0.4-0.9-0.5c-0.6-0.3-1.3-0.6-1.4-1.6c0-0.2,0.1-0.3,0.3-0.3c0.2,0,0.3,0.1,0.3,0.3c0.1,0.7,0.5,0.9,1.1,1.1
			c0.4,0.2,0.9,0.4,1.2,0.8c0,0,0.1,0.1,0.1,0.1c0.1,0,0.1,0,0.2,0C27,19.8,27.2,19.3,27.2,18.8z"/>
		<g>
			<path fill="#FFFFFF" d="M22.4,21.6c-0.2,0-0.3,0-0.5,0c-2.7,0-4.5,1.1-5.8,1.9c-0.4,0.3-0.9,0.5-1.3,0.7c-0.1,0-0.1,0.1-0.1,0.2
				c0,0.1,0,0.2,0.1,0.2c0.2,0.1,0.5,0.3,0.7,0.4c0.3,0.1,0.6,0.2,0.9,0.2c0.8,0.1,1.4,0.2,1.7,2.4c0,0.1,0.1,0.2,0.2,0.2h1.5
				c0.1,0,0.1,0,0.2-0.1c0,0,0.1-0.1,0.1-0.2c-0.3-2.1,0-2.3,0.6-2.6c0.2-0.1,0.4-0.2,0.7-0.5c0.6-0.5,1.2-1,1.4-2.6
				c0-0.1,0-0.1-0.1-0.2C22.5,21.7,22.4,21.6,22.4,21.6z"/>
		</g>
	</g>
</g>
</svg>
